<?xml version="1.0" encoding="UTF-8" standalone="no"?>
<svg
   xmlns:dc="http://purl.org/dc/elements/1.1/"
   xmlns:cc="http://creativecommons.org/ns#"
   xmlns:rdf="http://www.w3.org/1999/02/22-rdf-syntax-ns#"
   xmlns:svg="http://www.w3.org/2000/svg"
   xmlns="http://www.w3.org/2000/svg"
   xmlns:sodipodi="http://sodipodi.sourceforge.net/DTD/sodipodi-0.dtd"
   xmlns:inkscape="http://www.inkscape.org/namespaces/inkscape"
   version="1.1"
   id="svg885"
   width="2123"
   height="1531"
   viewBox="0 0 2123 1531"
   sodipodi:docname="7_min_logo.svg"
   inkscape:version="1.0.1 (3bc2e813f5, 2020-09-07)">
  <metadata
     id="metadata891">
    <rdf:RDF>
      <cc:Work
         rdf:about="">
        <dc:format>image/svg+xml</dc:format>
        <dc:type
           rdf:resource="http://purl.org/dc/dcmitype/StillImage" />
        <dc:title />
      </cc:Work>
    </rdf:RDF>
  </metadata>
  <defs
     id="defs889">
    <inkscape:path-effect
       effect="powerclip"
       id="path-effect897"
       is_visible="true"
       lpeversion="1"
       inverse="true"
       flatten="false"
       hide_clip="false"
       message="Use fill-rule evenodd on &lt;b&gt;fill and stroke&lt;/b&gt; dialog if no flatten result after convert clip to paths." />
    <inkscape:path-effect
       effect="powerclip"
       id="path-effect889"
       is_visible="true"
       lpeversion="1"
       inverse="true"
       flatten="false"
       hide_clip="false"
       message="Use fill-rule evenodd on &lt;b&gt;fill and stroke&lt;/b&gt; dialog if no flatten result after convert clip to paths." />
    <clipPath
       clipPathUnits="userSpaceOnUse"
       id="clipPath885">
      <path
         style="display:none;fill:#ffffff;fill-opacity:1;stroke:none;stroke-width:1px;stroke-linecap:butt;stroke-linejoin:miter;stroke-opacity:1"
         d="m 1283.4779,1007.4415 0.038,82.1643 c 16.9076,-24.7595 338.4336,-407.64405 339.0195,-420.61117 1.3925,-30.81801 -23.0405,-70.87679 -52.7952,-87.57672 -122.1865,-1.64919 -157.6324,0.55326 -237.7547,0.82989 l 0.8295,58.17365 179.7953,-1.40305 c 30.7818,-0.24021 57.0656,23.31512 43.9823,37.88897 -12.4628,13.88266 -177.6152,212.19307 -273.1148,330.53413 z"
         id="path887"
         sodipodi:nodetypes="ccscccsscc"
         mask="none" />
      <path
         id="lpe_path-effect889"
         style="fill:#ffffff;fill-opacity:1;stroke:none;stroke-width:1px;stroke-linecap:butt;stroke-linejoin:miter;stroke-opacity:1"
         class="powerclip"
         d="m 1277.9441,564.56756 h 359.7937 v 552.84584 h -359.7937 z m 5.5338,442.87394 0.038,82.1643 c 16.9076,-24.7595 338.4336,-407.64405 339.0195,-420.61117 1.3925,-30.81801 -23.0405,-70.87679 -52.7952,-87.57672 -122.1865,-1.64919 -157.6324,0.55326 -237.7547,0.82989 l 0.8295,58.17365 179.7953,-1.40305 c 30.7818,-0.24021 57.0656,23.31512 43.9823,37.88897 -12.4628,13.88266 -177.6152,212.19307 -273.1148,330.53413 z" />
    </clipPath>
    <clipPath
       clipPathUnits="userSpaceOnUse"
       id="clipPath893">
      <path
         style="display:none;fill:#ffffff;fill-opacity:1;stroke:none;stroke-width:1px;stroke-linecap:butt;stroke-linejoin:miter;stroke-opacity:1"
         d="m 792.32103,1191.837 c -7.10315,42.4963 344.65987,53.9568 445.77297,15.2771 -103.709,9.1723 -217.168,9.9583 -305.59749,4.3033 -51.04492,-3.2642 -92.6658,-14.6343 -116.84494,-20.1812 -14.25212,-3.2695 -22.93494,-1.766 -23.33054,0.6008 z"
         id="path895"
         sodipodi:nodetypes="scsss" />
      <path
         id="lpe_path-effect897"
         style="fill:#ffffff;fill-opacity:1;stroke:none;stroke-width:1px;stroke-linecap:butt;stroke-linejoin:miter;stroke-opacity:1"
         class="powerclip"
         d="m 767.32602,1159.0251 h 505.06558 v 93.7772 H 767.32602 Z m 24.99501,32.8119 c -7.10315,42.4963 344.65987,53.9568 445.77297,15.2771 -103.709,9.1723 -217.168,9.9583 -305.59749,4.3033 -51.04492,-3.2642 -92.6658,-14.6343 -116.84494,-20.1812 -14.25212,-3.2695 -22.93494,-1.766 -23.33054,0.6008 z" />
    </clipPath>
  </defs>
  <sodipodi:namedview
     pagecolor="#ffffff"
     bordercolor="#666666"
     borderopacity="1"
     objecttolerance="10"
     gridtolerance="10"
     guidetolerance="10"
     inkscape:pageopacity="0"
     inkscape:pageshadow="2"
     inkscape:window-width="1920"
     inkscape:window-height="1016"
     id="namedview887"
     showgrid="false"
     inkscape:snap-global="false"
     inkscape:zoom="0.80970534"
     inkscape:cx="1083.1304"
     inkscape:cy="895.93475"
     inkscape:window-x="0"
     inkscape:window-y="27"
     inkscape:window-maximized="1"
     inkscape:current-layer="g893"
     inkscape:document-rotation="0" />
  <g
     inkscape:groupmode="layer"
     inkscape:label="Image"
     id="g893">
    <path
       style="fill:#030303;fill-opacity:1;stroke:none;stroke-width:1px;stroke-linecap:butt;stroke-linejoin:miter;stroke-opacity:1"
       d="m 754.66931,767.30437 c -28.49602,0.44447 -39.54323,-25.49827 -37.5091,-50.88053 -11.03662,-11.92177 -21.34821,-25.23865 -24.1225,-53.05868 -48.77682,-37.78771 -86.30879,-96.046 -23.09839,-171.08558 -27.98462,-93.09345 32.00006,-136.42107 92.12949,-141.68333 7.26895,-67.70449 77.04631,-130.60495 157.79755,-69.90075 36.03903,-71.4711 139.18144,-103.99982 202.48504,-6.22683 60.5517,-13.54035 75.433,11.79311 93.2546,32.29214 104.5228,-10.4471 199.075,127.24338 67.3525,217.82936 -37.0182,16.37368 -66.6629,11.37289 -94.6088,1.44716 -27.9753,20.90123 -59.9269,32.87258 -112.5932,-1.6769 1.0278,-0.002 -28.02,16.27629 -31.2667,27.76079 -2.9244,10.3444 65.7513,18.04002 65.8314,16.00191 -56.9527,4.12405 -117.45374,4.45243 -181.26865,1.23578 -17.10827,34.18341 -40.70031,72.06967 -104.33767,66.00722 -4.26251,7.67842 -6.71338,8.69874 -9.20229,9.85881 2.481,22.37685 6.77333,44.76575 -17.49368,66.96456 -3.52802,23.83564 -2.67712,54.48048 -43.3496,55.11487 z"
       id="path989"
       sodipodi:nodetypes="sccccccccccscccccs" />
    <path
       style="fill:#ffffff;fill-opacity:1;stroke:none;stroke-width:1px;stroke-linecap:butt;stroke-linejoin:miter;stroke-opacity:1"
       d="m 771.92687,713.23678 7.67501,0.31356 c 26.05668,42.66921 -62.19727,64.16631 -49.07765,0.17954 l 9.51117,0.32279 c -22.63626,-11.96026 -33.97922,-29.67754 -32.78209,-53.78741 l 17.90858,-0.54338 c -89.54026,-27.24067 -104.6704,-130.42166 -10.64012,-181.05297 -6.85597,-0.89458 -17.1925,1.06577 -33.11745,7.61001 -16.55236,-39.91884 1.86507,-121.72052 81.67957,-121.93267 3.21602,14.55704 10.10985,27.31715 19.02167,39.09128 -26.6198,-106.66398 36.41345,-145.77877 104.72869,-128.26262 12.19975,3.12803 21.40631,11.0238 29.09131,18.83152 -3.88958,15.55146 1.51593,30.2728 6.33354,45.04664 -13.17488,-95.4882 129.4095,-172.82013 191.2557,-54.924 7.5635,14.41819 6.0948,29.85018 11.1108,50.65062 4.1611,-15.3977 8.8977,-30.68339 3.6467,-47.91286 29.4493,-10.94772 54.7693,-3.90485 74.7591,26.36052 -14.3952,8.36886 -24.9163,18.17817 -31.8768,29.31136 16.3096,-7.16906 30.3529,-20.05719 44.3539,-21.27262 164.007,-14.23747 148.9366,228.66552 -6.7832,198.58184 -15.7149,-3.03598 -30.6284,-17.61201 -48.8056,-28.91171 4.4186,10.91387 10.8954,19.9153 20.1441,26.34094 -62.8887,43.11311 -108.316,-6.88908 -126.0623,-42.9322 -0.3901,13.87162 2.8822,26.2044 14.9114,38.46292 -41.0825,43.12144 -82.56317,27.17921 -102.77592,-1.49629 0.54823,4.91554 0.73114,9.2979 8.06797,20.11326 -9.93318,13.93541 -27.85213,21.35559 -46.81466,26.35404 -2.18656,-8.825 -2.0322,-18.45017 -7.44565,-28.06096 0.21185,92.98409 -77.44941,106.9549 -124.50002,80.78801 l 19.00148,15.41647 c -3.56761,11.58666 -20.89977,18.6904 -32.45423,26.93671 l 19.55561,-3.95557 c 11.55027,26.39673 1.68493,47.84303 -29.62061,64.33323 z"
       id="path991"
       sodipodi:nodetypes="ccccccccccsccsccccssccccccccccccc" />
    <path
       style="fill:#060000;fill-opacity:1;stroke:none;stroke-width:1px;stroke-linecap:butt;stroke-linejoin:miter;stroke-opacity:1"
       d="m 767.41582,539.83248 c -4.5227,-3.39787 -8.39341,-43.06312 13.2595,-58.59628 22.25312,-15.96374 49.21087,-6.17976 61.55509,2.43881 -4.74575,-19.01138 -46.374,-30.30108 -70.16677,-10.63828 -32.42123,26.79354 -9.6264,69.92225 -4.64782,66.79575 z"
       id="path1011"
       sodipodi:nodetypes="cscsc" />
    <path
       style="fill:#060000;fill-opacity:1;stroke:none;stroke-width:1px;stroke-linecap:butt;stroke-linejoin:miter;stroke-opacity:1"
       d="m 812.57419,444.84862 c -10.95173,-41.99821 60.74191,-57.27219 67.39181,-6.89402 -26.96836,-42.88627 -61.09797,-21.51147 -67.39181,6.89402 z"
       id="path1013"
       sodipodi:nodetypes="ccc" />
    <path
       style="fill:#060000;fill-opacity:1;stroke:none;stroke-width:1px;stroke-linecap:butt;stroke-linejoin:miter;stroke-opacity:1"
       d="m 961.5444,404.64108 c -14.05536,-82.5344 126.0571,-87.70868 119.8232,-5.79779 -42.9476,-79.71742 -105.12992,-49.41764 -119.8232,5.79779 z"
       id="path1015"
       sodipodi:nodetypes="ccc" />
    <path
       style="fill:#060000;fill-opacity:1;stroke:none;stroke-width:1px;stroke-linecap:butt;stroke-linejoin:miter;stroke-opacity:1"
       d="m 1207.3507,397.92641 c 11.453,-49.69978 84.7942,-18.47922 66.3067,21.75856 -6.2336,-49.56621 -48.5884,-47.4985 -66.3067,-21.75856 z"
       id="path1017"
       sodipodi:nodetypes="ccc" />
    <path
       style="fill:#060000;fill-opacity:1;stroke:none;stroke-width:1px;stroke-linecap:butt;stroke-linejoin:miter;stroke-opacity:1"
       d="m 756.75718,766.98438 -2.7535,368.68802 c -2.90271,3.7899 -17.00239,29.08 -17.88468,50.2347 -26.42228,112.8145 563.0046,137.2673 567.7347,0 1.8711,-17.0181 -14.3469,-35.0419 -18.8085,-55.5771 l -1.3927,-23.3889 -0.542,-582.371 c -6.179,2.27226 -9.7228,3.78136 -13.1308,5.25112 l -1.2403,22.26909 c -115.0098,28.4454 -228.8987,31.25594 -342.47204,26.85221 l -8.24474,11.36712 c 118.16998,8.77392 231.73718,4.22714 350.11878,-23.78186 1.0933,189.39727 -2.6966,549.66862 3.2799,568.19182 2.4501,13.5871 12.7053,26.7142 17.7223,41.9677 27.6857,122.3196 -579.5272,113.0169 -538.78524,0 6.20829,-16.4269 10.37921,-21.0426 16.00092,-33.9257 7.01452,-123.3485 2.85364,-253.61324 3.77629,-377.62286 -4.36123,1.04355 -8.74489,1.98929 -13.37839,1.84564 z"
       id="path1019"
       sodipodi:nodetypes="cccccccccccccccccc" />
    <path
       style="fill:#060000;fill-opacity:1;stroke:none;stroke-width:1px;stroke-linecap:butt;stroke-linejoin:miter;stroke-opacity:1"
       d="m 782.25389,1164.0251 c 155.52471,39.0536 319.74601,37.7381 475.90831,0.5012 3.3331,7.8112 8.0155,14.3955 8.9861,24.3549 13.0549,77.956 -503.72454,79.1898 -494.70558,-0.075 3.12099,-8.8194 6.08801,-18.2149 9.81117,-24.7809 z"
       id="path1021"
       sodipodi:nodetypes="ccccc"
       clip-path="url(#clipPath893)"
       inkscape:path-effect="#path-effect897"
       inkscape:original-d="m 782.25389,1164.0251 c 155.52471,39.0536 319.74601,37.7381 475.90831,0.5012 3.3331,7.8112 8.0155,14.3955 8.9861,24.3549 13.0549,77.956 -503.72454,79.1898 -494.70558,-0.075 3.12099,-8.8194 6.08801,-18.2149 9.81117,-24.7809 z" />
    <path
       style="fill:#000000;fill-opacity:1;stroke:none;stroke-width:1px;stroke-linecap:butt;stroke-linejoin:miter;stroke-opacity:1"
       d="m 787.87299,752.7019 0.0645,391.9592 c 165.84214,51.4825 346.20611,31.1861 463.63281,0 V 570.28137 c -105.8642,20.6139 -215.7062,30.59861 -333.29435,19.88532 -22.27875,34.49776 -53.75271,49.6415 -93.29948,45.07765 -2.78137,4.18498 -5.24647,7.91435 -9.40916,10.09096 3.26307,24.75933 4.54376,46.97292 -17.4625,67.00583 -1.34461,15.0489 -3.83423,29.45042 -10.23181,40.36077 z"
       id="path1025"
       sodipodi:nodetypes="ccccccccc" />
    <path
       style="fill:#ffff65;fill-opacity:1;stroke:none;stroke-width:1px;stroke-linecap:butt;stroke-linejoin:miter;stroke-opacity:1"
       d="m 1242.0751,1135.988 c -148.6208,37.5848 -297.05792,46.1898 -445.1478,0 l 1.26932,-423.11694 c 18.31338,-18.5154 22.15144,-41.59087 17.47217,-67.3495 3.74675,-2.74875 7.19388,-5.98252 9.35294,-11.30138 37.48085,6.11471 68.89975,-7.74742 93.471,-44.1756 100.80807,8.02902 206.60497,5.78472 322.65467,-17.57322 z"
       id="path1027"
       sodipodi:nodetypes="cccccccc" />
    <path
       style="fill:#000000;fill-opacity:1;stroke:none;stroke-width:1px;stroke-linecap:butt;stroke-linejoin:miter;stroke-opacity:1"
       d="m 899.91909,686.6793 c -36.76048,-39.05667 -70.87563,0.0864 -70.86801,18.53718 l 0.14652,354.43132 c 0.0196,47.3254 59.98784,48.3771 73.66118,18.8813 -17.44138,6.74 -36.26502,-10.1232 -44.45958,-41.0384 -15.28493,-57.66469 -9.73154,-266.64206 0.30962,-300.38695 10.14781,-34.1033 17.87337,-57.82233 41.21027,-50.42445 z"
       id="path1029"
       sodipodi:nodetypes="csscssc" />
    <path
       style="fill:#000000;fill-opacity:1;stroke:none;stroke-width:1px;stroke-linecap:butt;stroke-linejoin:miter;stroke-opacity:1"
       d="m 834.68443,1098.688 c 17.83398,25.3923 61.26837,31.6583 81.18323,0 0,0 6.69715,-12.6014 6.81907,-19.48 2.2086,-124.61146 2.65152,-376.67781 -0.61303,-389.64712 -11.55004,-56.879 -67.46028,-43.94421 -86.33616,-20.70516 22.18307,-14.2999 64.99542,-15.15951 71.59246,16.51556 0.168,0.80662 0.74666,2.56177 1.09789,5.4005 5.22301,42.21354 0.81206,305.06532 1.60597,384.39192 0.015,1.4973 -0.63869,5.5836 -1.2126,6.8471 -16.99445,37.4173 -49.92564,29.9749 -74.13683,16.6772 z"
       id="path1031"
       sodipodi:nodetypes="ccsccssssc" />
    <path
       style="fill:#000000;fill-opacity:1;stroke:none;stroke-width:1px;stroke-linecap:butt;stroke-linejoin:miter;stroke-opacity:1"
       d="m 1040.1518,689.15084 c -36.7605,-39.05667 -70.87564,0.0864 -70.86804,18.53718 l 0.1465,354.43128 c 0.02,47.3254 59.98794,48.3771 73.66114,18.8813 -17.4413,6.74 -36.2649,-10.1232 -44.45954,-41.0384 -15.2849,-57.66465 -9.7315,-266.64202 0.3096,-300.38691 10.14794,-34.1033 17.87344,-57.82233 41.21034,-50.42445 z"
       id="path1029-0"
       sodipodi:nodetypes="csscssc" />
    <path
       style="fill:#000000;fill-opacity:1;stroke:none;stroke-width:1px;stroke-linecap:butt;stroke-linejoin:miter;stroke-opacity:1"
       d="m 978.08923,1100.8725 c 17.8339,25.3923 61.26827,31.6583 81.18317,0 0,0 6.6971,-12.6014 6.8191,-19.48 2.2086,-124.61139 2.6515,-376.67774 -0.6131,-389.64705 -11.55,-56.879 -67.46027,-43.94421 -86.33607,-20.70516 22.18297,-14.2999 64.99537,-15.15951 71.59237,16.51556 0.168,0.80662 0.7467,2.56177 1.0979,5.4005 5.223,42.21354 0.8121,305.06535 1.606,384.39185 0.015,1.4973 -0.6387,5.5836 -1.2126,6.8471 -16.9945,37.4173 -49.9257,29.9749 -74.13677,16.6772 z"
       id="path1031-9"
       sodipodi:nodetypes="ccsccssssc" />
    <path
       style="fill:#000000;fill-opacity:1;stroke:none;stroke-width:1px;stroke-linecap:butt;stroke-linejoin:miter;stroke-opacity:1"
       d="m 1183.6141,686.89534 c -36.7605,-39.05667 -70.8756,0.0864 -70.868,18.53718 l 0.1465,354.43128 c 0.02,47.3254 59.9879,48.3771 73.6612,18.8813 -17.4414,6.74 -36.265,-10.1232 -44.4596,-41.0384 -15.2849,-57.66465 -9.7315,-266.64202 0.3096,-300.38691 10.1479,-34.1033 17.8734,-57.82233 41.2103,-50.42445 z"
       id="path1029-0-3"
       sodipodi:nodetypes="csscssc" />
    <path
       style="fill:#000000;fill-opacity:1;stroke:none;stroke-width:1px;stroke-linecap:butt;stroke-linejoin:miter;stroke-opacity:1"
       d="m 1118.5677,1097.8384 c 17.8339,25.3923 61.2683,31.6583 81.1832,0 0,0 6.6971,-12.6014 6.8191,-19.48 2.2086,-124.61142 2.6515,-376.67777 -0.6131,-389.64708 -11.55,-56.879 -67.4603,-43.94421 -86.3361,-20.70516 22.183,-14.2999 64.9954,-15.15951 71.5924,16.51556 0.168,0.80662 0.7467,2.56177 1.0979,5.4005 5.223,42.21354 0.8121,305.06528 1.606,384.39188 0.015,1.4973 -0.6387,5.5836 -1.2126,6.8471 -16.9945,37.4173 -49.9257,29.9749 -74.1368,16.6772 z"
       id="path1031-9-6"
       sodipodi:nodetypes="ccsccssssc" />
    <path
       style="fill:#000000;fill-opacity:1;stroke:none;stroke-width:1px;stroke-linecap:butt;stroke-linejoin:miter;stroke-opacity:1"
       d="m 1284.2294,1006.3288 c -0.6831,24.4768 -0.8877,72.785 -1.2323,106.0846 142.5333,-173.57976 336.7606,-407.53401 346.9535,-431.7813 15.0817,-35.87689 -34.7793,-111.7349 -60.0361,-111.06007 0,0 -259.6442,0.47976 -248.3881,1.0906 l -0.372,83.03821 190.6312,0.48914 c 12.7043,0.0326 33.1606,6.94834 23.957,19.15542 -68.3238,90.62038 -170.5344,206.95192 -252.7985,311.89736 z"
       id="path1119"
       sodipodi:nodetypes="ccscccsscc"
       mask="none"
       clip-path="url(#clipPath885)"
       inkscape:path-effect="#path-effect889"
       inkscape:original-d="m 1284.2294,1006.3288 c -0.6831,24.4768 -0.8877,72.785 -1.2323,106.0846 142.5333,-173.57976 336.7606,-407.53401 346.9535,-431.7813 15.0817,-35.87689 -34.7793,-111.7349 -60.0361,-111.06007 0,0 -259.6442,0.47976 -248.3881,1.0906 l -0.372,83.03821 190.6312,0.48914 c 12.7043,0.0326 33.1606,6.94834 23.957,19.15542 -68.3238,90.62038 -170.5344,206.95192 -252.7985,311.89736 z" />
    <path
       style="fill:#040404;fill-opacity:1;stroke:none;stroke-width:1px;stroke-linecap:butt;stroke-linejoin:miter;stroke-opacity:1"
       d="m 1462.3504,593.59049 c 33.0101,8.03598 90.4675,-0.78879 114.4104,17.76776 6.7504,5.23177 24.6007,38.78303 23.9927,52.81482 -0.8134,18.77021 -25.9582,40.12901 -37.3668,67.561 13.4603,-21.61258 42.0976,-46.88377 50.1616,-66.22599 2.9468,-15.86237 -19.9916,-55.30444 -32.2442,-65.06095 -11.0241,-8.77822 -85.49,-9.81643 -118.9537,-6.85664 z"
       id="path1123"
       sodipodi:nodetypes="cssccsc" />
    <path
       style="fill:#000000;fill-opacity:1;stroke:none;stroke-width:1px;stroke-linecap:butt;stroke-linejoin:miter;stroke-opacity:1"
       d="m 1290.9365,1071.7012 0.5939,-23.403 82.0548,-96.07707 c 9.876,-11.56373 38.694,-50.78909 52.7824,-74.30889 -22.7817,60.35814 -43.7998,80.03151 -135.4311,193.78896 z"
       id="path1125"
       sodipodi:nodetypes="ccscc" />
  </g>
</svg>
